<?xml version="1.0" encoding="UTF-8"?>
<svg version="1.1" viewBox="0 0 396 400" xmlns="http://www.w3.org/2000/svg" xmlns:xlink="http://www.w3.org/1999/xlink">
 <defs>
  <linearGradient id="ad">
   <stop stop-color="#cf0" offset="0"/>
   <stop stop-color="#cf0" stop-opacity="0" offset="1"/>
  </linearGradient>
  <filter id="aq" x="-.497" y="-.27109" width="1.994" height="1.5422" color-interpolation-filters="sRGB">
   <feGaussianBlur stdDeviation="0.95162427"/>
  </filter>
  <filter id="ae" x="-.17941" y="-.39116" width="1.3588" height="1.7823" color-interpolation-filters="sRGB">
   <feGaussianBlur stdDeviation="5.9233145"/>
  </filter>
  <filter id="af" x="-.060301" y="-.2353" width="1.1206" height="1.4706" color-interpolation-filters="sRGB">
   <feGaussianBlur stdDeviation="4.3098184"/>
  </filter>
  <filter id="ag" color-interpolation-filters="sRGB">
   <feGaussianBlur stdDeviation="1.3965215"/>
  </filter>
  <filter id="aa" x="-.10582" y="-.041871" width="1.2116" height="1.0837" color-interpolation-filters="sRGB">
   <feGaussianBlur stdDeviation="0.464315"/>
  </filter>
  <filter id="ah" color-interpolation-filters="sRGB">
   <feGaussianBlur stdDeviation="0.45091515"/>
  </filter>
  <filter id="ab" x="-.054396" y="-.10645" width="1.1088" height="1.2129" color-interpolation-filters="sRGB">
   <feGaussianBlur stdDeviation="0.2793634"/>
  </filter>
  <filter id="ai" color-interpolation-filters="sRGB">
   <feGaussianBlur stdDeviation="0.36937425"/>
  </filter>
  <filter id="aj" x="-.10097" y="-.055948" width="1.2019" height="1.1119" color-interpolation-filters="sRGB">
   <feGaussianBlur stdDeviation="0.3576915"/>
  </filter>
  <filter id="ak" x="-.055264" y="-.10327" width="1.1105" height="1.2065" color-interpolation-filters="sRGB">
   <feGaussianBlur stdDeviation="0.29811554"/>
  </filter>
  <filter id="al" color-interpolation-filters="sRGB">
   <feGaussianBlur stdDeviation="0.12077447"/>
  </filter>
  <filter id="am" color-interpolation-filters="sRGB">
   <feGaussianBlur stdDeviation="0.1811617"/>
  </filter>
  <filter id="ac" color-interpolation-filters="sRGB">
   <feGaussianBlur stdDeviation="0.24100834"/>
  </filter>
  <filter id="an" color-interpolation-filters="sRGB">
   <feGaussianBlur stdDeviation="0.20667739"/>
  </filter>
  <filter id="ao" x="-.065112" y="-.46994" width="1.1302" height="1.9399" color-interpolation-filters="sRGB">
   <feGaussianBlur stdDeviation="3.2685044"/>
  </filter>
  <filter id="ap" x="-.16047" y="-.33029" width="1.3209" height="1.6606" color-interpolation-filters="sRGB">
   <feGaussianBlur stdDeviation="4.1967531"/>
  </filter>
  <radialGradient id="az" cx="377.12" cy="119.91" r="108.05" gradientTransform="matrix(.59935 .95664 -1.0136 .63505 274.37 -296.77)" gradientUnits="userSpaceOnUse">
   <stop stop-color="#d40000" offset="0"/>
   <stop stop-color="#d40000" offset=".53919"/>
   <stop stop-color="#d40000" offset=".71091"/>
   <stop stop-color="#d40000" offset=".86236"/>
   <stop stop-color="#800000" offset="1"/>
  </radialGradient>
  <linearGradient id="ar" x1="148.25" x2="152.35" y1="125.19" y2="163.17" gradientUnits="userSpaceOnUse">
   <stop stop-color="#fff" offset="0"/>
   <stop stop-color="#fff" stop-opacity="0" offset="1"/>
  </linearGradient>
  <linearGradient id="as" x1="289.22" x2="302.38" y1="625.42" y2="564.69" gradientTransform="translate(-2.903 2.1773)" gradientUnits="userSpaceOnUse">
   <stop stop-color="#800000" offset="0"/>
   <stop stop-color="#a00" stop-opacity="0" offset="1"/>
  </linearGradient>
  <linearGradient id="at" x1="292.86" x2="281.04" y1="472.65" y2="467.28" gradientUnits="userSpaceOnUse">
   <stop stop-color="#cf0" offset="0"/>
   <stop stop-color="#cf0" stop-opacity="0" offset="1"/>
  </linearGradient>
  <linearGradient id="au" x1="264.51" x2="255.32" y1="479.63" y2="476.1" gradientTransform="matrix(.97869 -.074646 .20591 .72136 -283.09 -244.45)" gradientUnits="userSpaceOnUse" xlink:href="#ad"/>
  <linearGradient id="av" x1="262.44" x2="277.27" y1="463.11" y2="463.11" gradientTransform="matrix(.97869 -.074646 .20591 .72136 -86.106 139.48)" gradientUnits="userSpaceOnUse" xlink:href="#ad"/>
  <linearGradient id="aw" x1="120.92" x2="117.03" y1="59.47" y2="49.924" gradientUnits="userSpaceOnUse">
   <stop stop-color="#cf0" offset="0"/>
   <stop stop-color="#cf0" stop-opacity="0" offset="1"/>
  </linearGradient>
  <linearGradient id="ax" x1="363.16" x2="351.14" y1="479.99" y2="464.61" gradientUnits="userSpaceOnUse">
   <stop stop-color="#cf0" offset="0"/>
   <stop stop-color="#cf0" stop-opacity="0" offset="1"/>
  </linearGradient>
  <linearGradient id="ay" x1="319.67" x2="332.4" y1="500.85" y2="517.46" gradientUnits="userSpaceOnUse">
   <stop stop-color="#cf0" offset="0"/>
   <stop stop-color="#cf0" stop-opacity="0" offset="1"/>
  </linearGradient>
 </defs>
 <g transform="translate(-263.67 -358.64)">
  <g transform="matrix(.48806 0 0 .48806 153.25 411.39)">
   <path transform="matrix(.7369 -.25362 .1755 1.0649 154.36 479.71)" d="m443.44 154.31c0 7.8161-12.997 14.152-29.03 14.152s-29.03-6.3362-29.03-14.152c0-7.8161 12.997-14.152 29.03-14.152s29.03 6.3362 29.03 14.152z" color="#000000" fill="#fff"/>
   <path transform="matrix(3.486 0 0 3.486 -677.34 -294.17)" d="m482.63 161.57c0 54.713-47.928 99.066-107.05 99.066s-107.05-44.353-107.05-99.066 47.928-99.066 107.05-99.066 107.05 44.353 107.05 99.066z" color="#000000" fill="#500" stroke="#500" stroke-linecap="round" stroke-linejoin="round" stroke-width="3.0493"/>
   <g transform="matrix(3.486 0 0 3.486 -427.55 -1604.1)">
    <path transform="translate(-71.656 375.2)" d="m482.63 161.57c0 54.713-47.928 99.066-107.05 99.066s-107.05-44.353-107.05-99.066 47.928-99.066 107.05-99.066 107.05 44.353 107.05 99.066z" color="#000000" fill="url(#az)"/>
    <path transform="matrix(1.1822 0 0 3.2171 154.64 -174.91)" d="m181.44 245.75c0 4.6095-26.969 8.3462-60.238 8.3462-33.268 0-60.238-3.7367-60.238-8.3462s26.969-8.3462 60.238-8.3462c33.268 0 60.238 3.7367 60.238 8.3462z" color="#000000" fill="#800000" filter="url(#ao)" opacity=".33"/>
    <path transform="matrix(.92315 -.091068 .091068 .92315 182.59 415.46)" d="m147 84.89c0 8.2843-14.103 15-31.5 15s-31.5-6.7157-31.5-15 14.103-15 31.5-15 31.5 6.7157 31.5 15z" color="#000000" fill="#241f1c" fill-rule="evenodd" filter="url(#ap)" opacity=".66"/>
    <path transform="matrix(.57356 -.18529 .28928 1.0603 210.4 410.68)" d="m185.79 137.25c0 9.6198-18.196 17.418-40.642 17.418s-40.642-7.7984-40.642-17.418 18.196-17.418 40.642-17.418 40.642 7.7984 40.642 17.418z" color="#000000" fill="url(#ar)" filter="url(#ae)"/>
    <path transform="matrix(.95918 -.12357 .10767 .99309 -43.068 44.7)" d="m387.47 589.23c-21.434 18.809-52.422 30.598-86.878 30.598-33.286 0-63.328-11.023-84.653-28.728 17.25 25.201 48.896 42.09 85.116 42.09 37.111 0 69.475-17.724 86.416-43.96z" color="#000000" fill="url(#as)" filter="url(#af)" opacity=".66"/>
   </g>
   <path d="m692.49-91.659-30.625 8.4375-17.125 25.219-1.2812 2.625-26.906 55.031-4.875-25.219h-0.0625v-0.0625h-0.34375v0.0625h-20.438l-9.7812 12-0.0625 1.9688-1.2188 1.5312-1.0938 41.469-98.062-58.188-50.219-1.1875-40.406 12-0.65625 3.25-0.59375 0.1875-7.375 36.75 14.719-31.844 35.5-7.3438 62.469 26.938 51.375 55.781-75.812-16.438-19.594 7.2188-75.938 43.219-15.938 33.656-7.3438 30.031 0.71875-1.2812-1.9688 8.25 24.469-44.094 40.438-24.469 58.781-22.062 53.875 7.3438 53.906 19.594 41.625-1.2188 41.656 29.406 23.25 20.812 18.375 33.062 10.688 21.344-3.3125 14.562 0.875-1.375-2.125 9.5625 12.25-19.594-1.3125-3.7812 2.5625-4.0312-11-31.219-9.8125-32.438v-0.0312l-0.1875-0.1875-31.656-39.438-14.812-15.5 67.438-24 71.031-15.938 39.188 11.031 19.594 24.5v22.031l9.8125-17.156-0.875-1.7188 2.125-3.6562-17.125-32.438-37.969-24.031-37.969-7.2188-34.281 2.4062-35.531 16.812-50.219 1.2188 0.0625-0.4375h0.0937l9.6875-64.5 11.969-36.469 10-17.75 23.25 4.9062-3.5312-3.2812 4.8125 1-17.156-15.625z" fill="#112b00" fill-rule="evenodd" filter="url(#ac)" stroke="#112b00" stroke-linecap="round" stroke-linejoin="round" stroke-width="7.0866"/>
   <g transform="matrix(3.486 0 0 3.486 -421.55 -1604.1)">
    <path d="m294.63 483.16-27.755 0.35132-21.431 5.9725-11.594 5.9725-8.0805 12.648 15.458-10.891 18.972-7.3778 23.188-1.7566h9.4858l8.4318 14.053 9.8371 14.756 11.242 12.296-9.8371-14.756-5.2698-31.62 15.107-1.054 20.026 4.5672 8.7831 5.6212 8.4318 7.3778-7.7291-10.54-8.0805-5.2698-25.647-6.6751z" fill="#800000" fill-rule="evenodd" filter="url(#ag)"/>
    <path d="m286.9 470.05-28.458-17.215-14.404-0.35132-11.594 3.5133-2.108 10.54 4.2159-9.1344 10.189-2.108 17.918 7.7291 16.512 17.918-23.89-5.2698-5.6212 2.108-21.782 12.648-4.5673 9.8371-2.108 8.7831 7.0265-12.648 11.594-7.0265 16.864-6.3238 15.458 2.108 15.458 5.6211 11.945-0.35132 11.945 8.4318 6.6751 5.9725 5.2698 9.4858 3.162 6.3238-1.4053 6.3238 3.5133-5.6211-3.162-9.1344-2.8106-9.4858-9.1344-11.594-5.2698-5.6212 20.728-7.3778 20.377-4.5672 11.243 3.162 5.6211 7.0265v6.3238l2.8106-4.9186-4.9186-9.4858-10.891-7.0265-10.891-2.108-9.8371 0.70264-10.189 4.9186-14.404 0.35133 2.8106-18.972 3.5133-10.891 3.162-5.6211 6.6751 1.4053-4.9186-4.5673-8.7831 2.4593-4.9186 7.3778-8.0805 16.864-1.4053-7.3778h-5.9726l-2.8106 3.5133z" fill="#250" fill-rule="evenodd" filter="url(#ac)"/>
    <path transform="matrix(1 0 0 .98087 .36288 9.6972)" d="m286.9 468.05-28.458-17.215-14.404-0.35132-11.594 3.5133-2.108 10.54 4.2159-9.1344 10.189-2.108 17.918 7.7291 16.512 17.918-23.89-5.2698-5.6212 2.108-21.782 12.648-4.5673 9.8371-2.108 8.7831 7.0265-12.648 11.594-7.0265 16.864-6.3238 15.458 2.108 15.458 5.6211 11.945-0.35132 11.945 8.4318 6.6751 5.9725 5.2698 9.4858 3.162 6.3238-1.4053 6.3238 3.5133-5.6211-3.162-9.1344-2.8106-9.4858-9.1344-11.594-5.2698-5.6212 20.728-7.3778 20.377-4.5672 11.243 3.162 5.6211 7.0265v6.3238l2.8106-4.9186-4.9186-9.4858-10.891-7.0265-10.891-2.108-9.8371 0.70264-10.189 4.9186-14.404 0.35133 2.8106-18.972 3.5133-10.891 3.162-5.6211 6.6751 1.4053-4.9186-4.5673-8.7831 2.4593-4.9186 7.3778-8.0805 16.864-1.4053-7.3778h-5.9726l-2.8106 3.5133z" fill="#668000" fill-rule="evenodd" filter="url(#am)"/>
    <path d="m294.15 484.91-6.8929-5.9356-1.1488-9.9565-6.1271 1.3403 0.19147 6.51 5.1698 4.021z" fill="#450" fill-rule="evenodd" filter="url(#ah)"/>
    <path d="m299.32 467.88 1.7233 8.4247 2.8721-2.6806z" fill="#450" fill-rule="evenodd" filter="url(#aq)"/>
    <path d="m293.58 454.47h-3.638l-1.1488 16.275 2.4892 10.148 5.7442 0.19147 2.2977-1.1488-4.5954-12.829z" fill="#450" fill-rule="evenodd" filter="url(#aa)"/>
    <path transform="matrix(.31745 0 0 .93709 196.71 29.244)" d="m293.58 454.47h-3.638l-1.1488 16.275 2.4892 10.148 5.7442 0.19147 2.2977-1.1488-4.5954-12.829z" fill="#112b00" fill-rule="evenodd" filter="url(#aa)"/>
    <path transform="matrix(.93066 0 0 .93066 24.39 32.436)" d="m290.81 470.62c-1.5611 6.5026 8.6285 12.971 4.3437 3.6059-2.714-5.4131-2.9184-11.382-3.375-17.293-0.32292 4.5625-0.64583 9.125-0.96875 13.688z" fill="url(#at)" fill-rule="evenodd" filter="url(#an)"/>
    <path transform="translate(187.44 398.42)" d="m71 77.156c-0.81516-0.01524-1.5627 0.05773-2.2188 0.25-0.58758 0.47369-0.60771 1.2811-0.875 1.9375-0.01532 0.03762-0.04052 0.0869-0.0625 0.125-0.0028 0.0049-0.02833-0.0049-0.03125 0-0.06301 0.07651-0.10943 0.16405-0.15625 0.25-0.0098 0.0122-0.02126 0.01903-0.03125 0.03125-0.31997 0.39156-0.69241 0.79782-0.375 1.1562-0.03193 0.10807-0.05213 0.21031-0.09375 0.3125-0.21885 0.5374-1.1806 1.1245-0.59375 1.625 0.56472 0.48171 1.3564-0.20691 2.0625-0.28125 0.79144-0.08336 1.5754-0.22127 2.4062-0.1875 1.8936 0.07698 4.0451 1.2341 5.75 0.875 0.81119-0.17086 1.1876-0.75689 1.5938-1.3125 0.39723-0.54345 0.73023-1.2021 0.75-1.875 0.01161-0.39511 0.02964-0.8375-0.375-1.125-2.3503-0.89408-5.3045-1.7355-7.75-1.7812z" color="#000000" fill="url(#au)" filter="url(#ab)" opacity=".44"/>
    <path transform="matrix(.89166 .83314 -.78988 .9405 398.95 -194.37)" d="m267.69 460.18c-0.81516-0.0152-1.7605 0.39993-2.4166 0.59223-0.58758 0.47369-0.60771 1.2812-0.875 1.9375-0.0153 0.0376-0.0405 0.0869-0.0625 0.125-3e-3 5e-3 -0.0283-5e-3 -0.0312 0-0.063 0.0765-0.10943 0.16405-0.15625 0.25-0.01 0.0122-0.0213 0.019-0.0312 0.0312-0.31997 0.39156-0.69241 0.79782-0.375 1.1562-0.0319 0.10807-0.0521 0.21031-0.0937 0.3125-0.21885 0.5374-0.68324 1.6858-0.0964 2.1864 0.56473 0.48171 1.3564-0.20691 2.0625-0.28125 0.79144-0.0834 1.5754-0.22127 2.4062-0.1875 1.8936 0.077 4.0451 1.2341 5.75 0.875 0.81119-0.17086 1.2422-0.72084 1.5938-1.3125 0.95141-1.6013 1.1795-3.6284 1.0572-5.487-0.0259-0.39443 0.0296-0.8375-0.375-1.125-2.3503-0.89408-4.3151 0.72394-6.7579 0.84675z" color="#000000" fill="url(#av)" filter="url(#ab)" opacity=".44"/>
    <path transform="matrix(.637 .025349 -.039762 .99921 232.99 399.46)" d="m117.38 48.438-4.2188 8.625c1.683 2.1197 4.3656 4.0165 7.4062 4.875 0.39944 0.11278 0.77256 0.14956 1.1562 0.21875l1.2188-8.125a0.77825 0.77825 0 0 1 0.0312 -0.125l1.0938-3.25c-1.204-0.75776-2.5286-1.4147-3.9375-1.8125-0.97274-0.27466-1.8744-0.36581-2.75-0.40625z" color="#000000" fill="url(#aw)" filter="url(#ai)" opacity=".44"/>
    <path d="m361.66 475.41c0.86572-1.3362-1.5245-2.9433-2.8398-3.8406-2.3628-1.6119-5.524-2.979-8.2852-2.2329-0.74375 0.20098-1.7587 0.88485-1.625 1.6436 0.41185 2.3368 4.1882 2.2796 6.4338 3.0461 2.0398 0.69623 5.1442 3.1927 6.3162 1.3838z" color="#000000" fill="url(#ax)" filter="url(#ak)" opacity=".44"/>
    <path d="m322.44 501.42c-1.401 0-2.4663 0.89727-3.0737 2.3053l0.49576 0.44619 4.1644 7.3868 2.5284 4.9328-0.0743 0.27267c0.5212-0.11489 0.99069-0.35915 1.3881-0.71885l-2.1566-6.1226-2.2309-7.3868-0.89237-1.0907c-0.0503-2e-3 -0.0986-0.0248-0.14873-0.0248z" color="#000000" fill="url(#ay)" filter="url(#aj)" opacity=".44"/>
    <path transform="translate(187.44 398.42)" d="m130 38.281-2.9062 5.0938-3.5 10.656-2.8125 18.625h0.15625l2.7812-18.5 3.5-10.656 2.7812-4.875v-0.34375zm-21.156 15.531 1.375 7.125 0.0625-0.15625-1.3438-6.9688h-0.0937zm53.375 19.875-20.375 4.4688-20.719 7.25 0.125 0.125 20.719-7.25 20.375-4.4688 11.219 3.0938-0.0937-0.125-11.25-3.0938zm-48.719 17.344v0.03125l10.906 7.5625-0.125-0.125-10.781-7.4688zm22.031 11.25 2.8125 9.3125 3.0938 8.7812h0.0625l-3.0312-8.6562-2.8125-9.3125-0.125-0.125z" fill="#cf0" fill-rule="evenodd" filter="url(#al)" opacity=".66"/>
   </g>
  </g>
 </g>
</svg>
